<svg width="12" height="13" viewBox="0 0 12 13" fill="none" xmlns="http://www.w3.org/2000/svg">
<path d="M11.831 4.24878C11.1211 1.31902 8.39662 0 6.00338 0C6.00338 0 6.00338 0 5.99662 0C3.61013 0 0.878861 1.31268 0.169 4.24244C-0.621988 7.51463 1.51436 10.2859 3.44788 12.0298C4.1645 12.6766 5.08394 13 6.00338 13C6.92282 13 7.84226 12.6766 8.55212 12.0298C10.4856 10.2859 12.622 7.52098 11.831 4.24878ZM6.00338 7.42585C4.82704 7.42585 3.8738 6.53171 3.8738 5.42829C3.8738 4.32488 4.82704 3.43073 6.00338 3.43073C7.17972 3.43073 8.13296 4.32488 8.13296 5.42829C8.13296 6.53171 7.17972 7.42585 6.00338 7.42585Z" fill="#0080C6"/>
</svg>
