<svg width="25" height="29" viewBox="0 0 25 29" fill="none" xmlns="http://www.w3.org/2000/svg">
<path d="M24.5611 5.60427C24.5667 5.33766 24.4677 5.07723 24.2794 4.89498C23.7585 4.3911 22.9423 4.81061 22.217 4.86042C18.7527 5.09885 15.8075 3.52755 13.5043 0.983822C13.3029 0.761227 13.1569 0.498475 12.9565 0.284181C12.7844 0.100197 12.5449 0 12.2974 0H12.2631C12.0255 0 11.7956 0.0928608 11.6246 0.263331C11.3248 0.562184 11.0949 0.941929 10.8129 1.257C8.6747 3.64648 5.61057 5.07491 2.41691 4.86042C1.64066 4.8083 0.549165 4.28414 0.124924 5.12781C0.0582919 5.26005 0.0265625 5.40832 0.0265625 5.55736C0.0233896 8.8712 -0.164187 12.1568 0.504743 15.4135C1.55555 20.5298 4.63367 24.9359 9.13216 27.3538C9.8513 27.7403 11.7366 28.6538 12.4886 28.5509C13.7863 28.3731 16.1468 26.9964 17.2446 26.2066C22.0182 22.7723 24.3356 17.2837 24.5678 11.3607C24.6422 9.46138 24.5204 7.51265 24.5611 5.60427ZM12.2734 20.6881C8.85481 20.6881 6.08333 17.8216 6.08333 14.2853C6.08333 10.7491 8.85462 7.88255 12.2734 7.88255C15.6921 7.88255 18.4634 10.7491 18.4634 14.2853C18.4634 17.8216 15.6921 20.6881 12.2734 20.6881Z" fill="#0080C6"/>
</svg>
